<mxfile host="app.diagrams.net" modified="2023-03-09T10:02:08.880Z" agent="5.0 (Macintosh; Intel Mac OS X 10_15_7) AppleWebKit/537.36 (KHTML, like Gecko) Chrome/109.0.0.0 Safari/537.36" etag="YuHkkyC1dlKhABSLW7hT" version="21.0.4" type="github">
  <diagram name="第 1 页" id="yN6Sxb_6cEXyfYT_J5D5">
    <mxGraphModel dx="6297" dy="26" grid="1" gridSize="10" guides="1" tooltips="1" connect="1" arrows="1" fold="1" page="1" pageScale="1" pageWidth="827" pageHeight="1169" math="0" shadow="0">
      <root>
        <mxCell id="0" />
        <mxCell id="1" parent="0" />
        <mxCell id="qRTpAIv4RuVWZYeeVar0-1" value="&lt;font style=&quot;font-size: 16px;&quot;&gt;&lt;span style=&quot;font-weight: 400;&quot;&gt;&amp;nbsp; &amp;nbsp; &amp;nbsp; &amp;nbsp; &amp;nbsp; &amp;nbsp; &amp;nbsp; &amp;nbsp; &amp;nbsp;数据采集拾取方法调用顺序：&lt;/span&gt;&amp;nbsp;&lt;/font&gt;&lt;span style=&quot;font-size: 16px;&quot;&gt;&amp;nbsp; &amp;nbsp; &amp;nbsp; &amp;nbsp; &amp;nbsp; &amp;nbsp; &amp;nbsp; &amp;nbsp; &amp;nbsp; &amp;nbsp; &amp;nbsp; &amp;nbsp; &amp;nbsp; &amp;nbsp; &amp;nbsp; &amp;nbsp; &amp;nbsp; &amp;nbsp; &amp;nbsp; &amp;nbsp; &amp;nbsp; &amp;nbsp; &amp;nbsp; &amp;nbsp; &amp;nbsp; &amp;nbsp; &amp;nbsp; &amp;nbsp; &amp;nbsp; &amp;nbsp; &amp;nbsp; &amp;nbsp; &amp;nbsp; &amp;nbsp; &amp;nbsp; &amp;nbsp; &amp;nbsp; &amp;nbsp; &amp;nbsp; &amp;nbsp; &amp;nbsp;&amp;nbsp;&lt;br&gt;&lt;br&gt;&lt;br&gt;&lt;br&gt;&lt;br&gt;&lt;br&gt;&lt;br&gt;&lt;br&gt;&lt;br&gt;&lt;br&gt;&lt;br&gt;&lt;br&gt;&lt;br&gt;&lt;br&gt;&lt;br&gt;&lt;br&gt;&lt;br&gt;&lt;br&gt;&lt;br&gt;&lt;br&gt;&lt;br&gt;&lt;br&gt;&lt;br&gt;&lt;br&gt;&lt;br&gt;&lt;br&gt;&lt;br&gt;&lt;br&gt;&lt;br&gt;&lt;br&gt;&lt;br&gt;&lt;br&gt;&lt;br&gt;&lt;br&gt;&lt;br&gt;&lt;br&gt;&lt;br&gt;&lt;br&gt;&lt;br&gt;&lt;br&gt;&lt;br&gt;&lt;br&gt;&lt;br&gt;&lt;br&gt;&lt;br&gt;&lt;br&gt;&lt;br&gt;&lt;/span&gt;" style="rounded=1;whiteSpace=wrap;html=1;fontSize=16;fontStyle=1" vertex="1" parent="1">
          <mxGeometry x="-2220" y="2995.75" width="520" height="969.5" as="geometry" />
        </mxCell>
        <mxCell id="qRTpAIv4RuVWZYeeVar0-2" style="edgeStyle=orthogonalEdgeStyle;rounded=0;orthogonalLoop=1;jettySize=auto;html=1;" edge="1" parent="1" source="qRTpAIv4RuVWZYeeVar0-3" target="qRTpAIv4RuVWZYeeVar0-6">
          <mxGeometry relative="1" as="geometry" />
        </mxCell>
        <mxCell id="qRTpAIv4RuVWZYeeVar0-3" value="&lt;span style=&quot;background-color: initial;&quot;&gt;StartElementCapture()&lt;br&gt;&lt;/span&gt;&amp;lt;DataCollectingManager&amp;gt;" style="whiteSpace=wrap;html=1;rounded=1;" vertex="1" parent="1">
          <mxGeometry x="-2100" y="3050.5" width="270" height="60" as="geometry" />
        </mxCell>
        <mxCell id="qRTpAIv4RuVWZYeeVar0-4" value="MainWindowViewModel.&lt;br&gt;&lt;div&gt;&amp;nbsp;DealCaptureResult_DataCollectingElement()&lt;/div&gt;&lt;div&gt;&lt;br&gt;&lt;/div&gt;" style="whiteSpace=wrap;html=1;rounded=1;" vertex="1" parent="1">
          <mxGeometry x="-2100" y="3750.5" width="270" height="60" as="geometry" />
        </mxCell>
        <mxCell id="qRTpAIv4RuVWZYeeVar0-5" value="" style="edgeStyle=orthogonalEdgeStyle;rounded=0;orthogonalLoop=1;jettySize=auto;html=1;" edge="1" parent="1" source="qRTpAIv4RuVWZYeeVar0-6" target="qRTpAIv4RuVWZYeeVar0-17">
          <mxGeometry relative="1" as="geometry" />
        </mxCell>
        <mxCell id="qRTpAIv4RuVWZYeeVar0-6" value="&lt;span style=&quot;background-color: initial;&quot;&gt;StartCapture()&lt;br&gt;&lt;/span&gt;&amp;lt;DataCollectOverlayWnd&amp;gt;" style="whiteSpace=wrap;html=1;rounded=1;" vertex="1" parent="1">
          <mxGeometry x="-2100" y="3150.5" width="270" height="60" as="geometry" />
        </mxCell>
        <mxCell id="qRTpAIv4RuVWZYeeVar0-7" value="" style="edgeStyle=orthogonalEdgeStyle;rounded=0;orthogonalLoop=1;jettySize=auto;html=1;" edge="1" parent="1" source="qRTpAIv4RuVWZYeeVar0-8" target="qRTpAIv4RuVWZYeeVar0-4">
          <mxGeometry relative="1" as="geometry" />
        </mxCell>
        <mxCell id="qRTpAIv4RuVWZYeeVar0-8" value="MainWindowViewModel.&lt;br&gt;&lt;div&gt;&amp;nbsp;DealCaptureResult()&lt;/div&gt;&lt;div&gt;&lt;br&gt;&lt;/div&gt;" style="whiteSpace=wrap;html=1;rounded=1;" vertex="1" parent="1">
          <mxGeometry x="-2100" y="3648.5" width="270" height="60" as="geometry" />
        </mxCell>
        <mxCell id="qRTpAIv4RuVWZYeeVar0-9" value="" style="edgeStyle=orthogonalEdgeStyle;rounded=0;orthogonalLoop=1;jettySize=auto;html=1;" edge="1" parent="1" source="qRTpAIv4RuVWZYeeVar0-10" target="qRTpAIv4RuVWZYeeVar0-8">
          <mxGeometry relative="1" as="geometry" />
        </mxCell>
        <mxCell id="qRTpAIv4RuVWZYeeVar0-10" value="DataCollectOverlayWnd.&lt;br&gt;&lt;div&gt;&amp;nbsp;StopHighlight()&lt;/div&gt;&lt;div&gt;&lt;br&gt;&lt;/div&gt;" style="whiteSpace=wrap;html=1;rounded=1;" vertex="1" parent="1">
          <mxGeometry x="-2100" y="3550.5" width="270" height="60" as="geometry" />
        </mxCell>
        <mxCell id="qRTpAIv4RuVWZYeeVar0-11" value="" style="edgeStyle=orthogonalEdgeStyle;rounded=0;orthogonalLoop=1;jettySize=auto;html=1;" edge="1" parent="1" source="qRTpAIv4RuVWZYeeVar0-13" target="qRTpAIv4RuVWZYeeVar0-10">
          <mxGeometry relative="1" as="geometry" />
        </mxCell>
        <mxCell id="qRTpAIv4RuVWZYeeVar0-12" value="" style="edgeStyle=orthogonalEdgeStyle;rounded=0;orthogonalLoop=1;jettySize=auto;html=1;" edge="1" parent="1" source="qRTpAIv4RuVWZYeeVar0-13" target="qRTpAIv4RuVWZYeeVar0-10">
          <mxGeometry relative="1" as="geometry" />
        </mxCell>
        <mxCell id="qRTpAIv4RuVWZYeeVar0-13" value="DoSelect()&lt;br&gt;&amp;lt;DataCollectOverlayWnd&amp;gt;" style="whiteSpace=wrap;html=1;rounded=1;" vertex="1" parent="1">
          <mxGeometry x="-2100" y="3450.5" width="270" height="60" as="geometry" />
        </mxCell>
        <mxCell id="qRTpAIv4RuVWZYeeVar0-14" value="" style="edgeStyle=orthogonalEdgeStyle;rounded=0;orthogonalLoop=1;jettySize=auto;html=1;" edge="1" parent="1" source="qRTpAIv4RuVWZYeeVar0-15" target="qRTpAIv4RuVWZYeeVar0-13">
          <mxGeometry relative="1" as="geometry" />
        </mxCell>
        <mxCell id="qRTpAIv4RuVWZYeeVar0-15" value="&lt;span style=&quot;background-color: initial;&quot;&gt;DataCollectOverlayWnd_MouseClickExt()&lt;br&gt;&lt;/span&gt;&amp;lt;DataCollectOverlayWnd&amp;gt;" style="whiteSpace=wrap;html=1;rounded=1;" vertex="1" parent="1">
          <mxGeometry x="-2100" y="3350.5" width="270" height="60" as="geometry" />
        </mxCell>
        <mxCell id="qRTpAIv4RuVWZYeeVar0-16" value="" style="edgeStyle=orthogonalEdgeStyle;rounded=0;orthogonalLoop=1;jettySize=auto;html=1;" edge="1" parent="1" source="qRTpAIv4RuVWZYeeVar0-17" target="qRTpAIv4RuVWZYeeVar0-15">
          <mxGeometry relative="1" as="geometry" />
        </mxCell>
        <mxCell id="qRTpAIv4RuVWZYeeVar0-17" value="&lt;span style=&quot;background-color: initial;&quot;&gt;InstallHook()&lt;br&gt;&lt;/span&gt;&amp;lt;DataCollectOverlayWnd&amp;gt;" style="whiteSpace=wrap;html=1;rounded=1;" vertex="1" parent="1">
          <mxGeometry x="-2100" y="3250.5" width="270" height="60" as="geometry" />
        </mxCell>
        <mxCell id="qRTpAIv4RuVWZYeeVar0-18" value="" style="edgeStyle=orthogonalEdgeStyle;rounded=0;orthogonalLoop=1;jettySize=auto;html=1;" edge="1" parent="1" source="qRTpAIv4RuVWZYeeVar0-19" target="qRTpAIv4RuVWZYeeVar0-20">
          <mxGeometry relative="1" as="geometry" />
        </mxCell>
        <mxCell id="qRTpAIv4RuVWZYeeVar0-19" value="元素选择器处理1&lt;br&gt;DataCollectOverlayWnd.UIElement_OnSelected(GuiElement)&lt;br&gt;1.判断元素是否为table元素，若是，使用element.TableSelector元素进行后续操作，若不是，使用element.Selector&lt;br&gt;2.开始处理selector信息" style="rounded=1;whiteSpace=wrap;html=1;fontSize=10;" vertex="1" parent="1">
          <mxGeometry x="-710" y="3095" width="390" height="95" as="geometry" />
        </mxCell>
        <mxCell id="qRTpAIv4RuVWZYeeVar0-20" value="元素选择器处理2&lt;br&gt;DataCollectOverlayWnd .ProcessSelector(GuiElement,List&amp;lt;SelectorProps&amp;gt;)" style="rounded=1;whiteSpace=wrap;html=1;fontSize=10;" vertex="1" parent="1">
          <mxGeometry x="-710" y="3320" width="390" height="60" as="geometry" />
        </mxCell>
        <mxCell id="qRTpAIv4RuVWZYeeVar0-21" value="" style="edgeStyle=orthogonalEdgeStyle;rounded=0;orthogonalLoop=1;jettySize=auto;html=1;" edge="1" parent="1" source="qRTpAIv4RuVWZYeeVar0-22" target="qRTpAIv4RuVWZYeeVar0-24">
          <mxGeometry relative="1" as="geometry" />
        </mxCell>
        <mxCell id="qRTpAIv4RuVWZYeeVar0-22" value="MainWindowViewModel.StartCaptureCollectDataElement&lt;br&gt;判断是否为第一次拾取&lt;br&gt;第一次拾取" style="rounded=1;whiteSpace=wrap;html=1;fontSize=10;" vertex="1" parent="1">
          <mxGeometry x="-1184.99" y="3095" width="390" height="60" as="geometry" />
        </mxCell>
        <mxCell id="qRTpAIv4RuVWZYeeVar0-23" value="" style="edgeStyle=orthogonalEdgeStyle;rounded=0;orthogonalLoop=1;jettySize=auto;html=1;" edge="1" parent="1" source="qRTpAIv4RuVWZYeeVar0-24" target="qRTpAIv4RuVWZYeeVar0-26">
          <mxGeometry relative="1" as="geometry" />
        </mxCell>
        <mxCell id="qRTpAIv4RuVWZYeeVar0-24" value="&lt;span style=&quot;font-size: 10px;&quot;&gt;DataCollectingManager.&lt;br&gt;StartElementCapture(ParamStartCollectElementCaptureModel)&lt;br&gt;展示高亮蒙层&lt;br&gt;&lt;/span&gt;" style="rounded=1;whiteSpace=wrap;html=1;fontSize=10;" vertex="1" parent="1">
          <mxGeometry x="-1179.62" y="3200" width="379.25" height="80" as="geometry" />
        </mxCell>
        <mxCell id="qRTpAIv4RuVWZYeeVar0-25" value="" style="edgeStyle=orthogonalEdgeStyle;rounded=0;orthogonalLoop=1;jettySize=auto;html=1;" edge="1" parent="1" source="qRTpAIv4RuVWZYeeVar0-26" target="qRTpAIv4RuVWZYeeVar0-28">
          <mxGeometry relative="1" as="geometry" />
        </mxCell>
        <mxCell id="qRTpAIv4RuVWZYeeVar0-26" value="&lt;span style=&quot;font-size: 10px;&quot;&gt;DataCollectOverlayWnd.StartCapture(paramModel)&lt;/span&gt;&lt;br&gt;&lt;span style=&quot;font-size: 10px;&quot;&gt;开启拾取线程，拾取准备GuiElement.ReadyToCapture()&lt;br&gt;&lt;/span&gt;注册键盘鼠标钩子事件InstallHook" style="rounded=1;whiteSpace=wrap;html=1;fontSize=10;" vertex="1" parent="1">
          <mxGeometry x="-1180" y="3330" width="378.5" height="85" as="geometry" />
        </mxCell>
        <mxCell id="qRTpAIv4RuVWZYeeVar0-27" style="edgeStyle=orthogonalEdgeStyle;rounded=0;orthogonalLoop=1;jettySize=auto;html=1;" edge="1" parent="1" source="qRTpAIv4RuVWZYeeVar0-28" target="qRTpAIv4RuVWZYeeVar0-19">
          <mxGeometry relative="1" as="geometry">
            <Array as="points">
              <mxPoint x="-750" y="3500" />
              <mxPoint x="-750" y="3125" />
            </Array>
          </mxGeometry>
        </mxCell>
        <mxCell id="qRTpAIv4RuVWZYeeVar0-28" value="&lt;span style=&quot;font-size: 10px;&quot;&gt;DataCollectOverlayWnd.DoSelect()&lt;/span&gt;&lt;br&gt;&lt;span style=&quot;font-size: 10px;&quot;&gt;1.首次数据采集拾取时，判断是否是表格，并将结果保存在&lt;/span&gt;&lt;br&gt;&lt;span style=&quot;font-size: 10px;&quot;&gt;this.IsUseTableElement = ElementIsTable(element)&lt;/span&gt;&lt;br&gt;&lt;span style=&quot;font-size: 10px;&quot;&gt;2.元素截图逻辑&lt;/span&gt;&lt;br&gt;&lt;span style=&quot;font-size: 10px;&quot;&gt;3.调用UIElement_OnSelected(element)&lt;/span&gt;" style="rounded=1;whiteSpace=wrap;html=1;fontSize=10;" vertex="1" parent="1">
          <mxGeometry x="-1180" y="3460" width="379.25" height="80" as="geometry" />
        </mxCell>
        <mxCell id="qRTpAIv4RuVWZYeeVar0-29" value="&lt;span style=&quot;font-size: 10px;&quot;&gt;关键逻辑：判断是否为table元素：&lt;br&gt;通过拾取到的元素的userDefinedID查询元素，判断是否为table元素&lt;/span&gt;&lt;br&gt;&lt;span style=&quot;font-size: 10px;&quot;&gt;Chrome.GetIsTableName&lt;/span&gt;&lt;br&gt;&lt;div style=&quot;&quot;&gt;&lt;span style=&quot;font-size: 10px;&quot;&gt;tbUid = chromeTab.GetIsTableName(elementId);&lt;/span&gt;&lt;/div&gt;&lt;div style=&quot;&quot;&gt;&lt;span style=&quot;font-size: 10px;&quot;&gt;&amp;nbsp; &amp;nbsp; &amp;nbsp; &amp;nbsp; &amp;nbsp; &amp;nbsp; &amp;nbsp; &amp;nbsp; return !string.IsNullOrEmpty(tbUid);&lt;/span&gt;&lt;/div&gt;&lt;br&gt;&lt;span style=&quot;font-size: 10px;&quot;&gt;ChromeTab.GetIsTableName(string elementId):&lt;/span&gt;&lt;br&gt;&lt;span style=&quot;font-size: 10px;&quot;&gt;conn.Send(&quot;elements.getIsTableName&quot;, new JObject { { &quot;tabId&quot;, tabId }, { &quot;elementId&quot;, elementId } })&lt;/span&gt;&lt;br&gt;&lt;span style=&quot;font-size: 10px;&quot;&gt;return result.Result.Content.ToString();&lt;/span&gt;" style="rounded=1;whiteSpace=wrap;html=1;fontSize=10;" vertex="1" parent="1">
          <mxGeometry x="-1650" y="3410" width="413.5" height="180" as="geometry" />
        </mxCell>
        <mxCell id="qRTpAIv4RuVWZYeeVar0-30" value="" style="endArrow=none;dashed=1;html=1;dashPattern=1 3;strokeWidth=2;rounded=0;" edge="1" parent="1" target="qRTpAIv4RuVWZYeeVar0-29">
          <mxGeometry width="50" height="50" relative="1" as="geometry">
            <mxPoint x="-1180" y="3500" as="sourcePoint" />
            <mxPoint x="-1280" y="3500" as="targetPoint" />
          </mxGeometry>
        </mxCell>
        <mxCell id="qRTpAIv4RuVWZYeeVar0-31" value="&lt;span style=&quot;font-size: 10px;&quot;&gt;关键逻辑：&lt;br&gt;1.根据tab标签页元素获取当前页Url及title信息&lt;br&gt;var selectorObject = common.Selector.ToObject&amp;lt;List&amp;lt;SelectorProps&amp;gt;&amp;gt;()&lt;/span&gt;&lt;br&gt;&lt;span style=&quot;font-size: 10px;&quot;&gt;var tabProps = selectorObject.Find(o =&amp;gt; o.Name == “tab”);&lt;/span&gt;&lt;br&gt;&lt;span style=&quot;font-size: 10px;&quot;&gt;selectorObject.Remove(tabProps)&lt;br&gt;&lt;/span&gt;&lt;br&gt;&lt;div&gt;&lt;span style=&quot;font-size: 10px;&quot;&gt;var title = tabProps.Props.Find(p =&amp;gt; p.Name == &quot;title&quot;)&lt;/span&gt;&lt;/div&gt;&lt;div&gt;&lt;span style=&quot;font-size: 10px;&quot;&gt;&amp;nbsp; &amp;nbsp; &amp;nbsp; &amp;nbsp; &amp;nbsp; &amp;nbsp; &amp;nbsp; &amp;nbsp; &amp;nbsp; &amp;nbsp; var url = tabProps.Props.Find(p =&amp;gt; p.Name == &quot;url&quot;)&lt;/span&gt;&lt;/div&gt;&lt;div&gt;&lt;span style=&quot;font-size: 10px;&quot;&gt;2.判断是否为相同页面逻辑，先判断title，再判断url，若页面变动则提示错误&lt;/span&gt;&lt;/div&gt;&lt;div&gt;&lt;span style=&quot;font-size: 10px;&quot;&gt;3. 调用&lt;/span&gt;&lt;span style=&quot;background-color: initial;&quot;&gt;ProcessSelector(element, selectorObject);&lt;/span&gt;&lt;/div&gt;//处理select 得到只有tag的selector&lt;br&gt;4.调用GetNextElementBuildSelector(element);&amp;nbsp;//获取下一页元素" style="rounded=1;whiteSpace=wrap;html=1;fontSize=10;" vertex="1" parent="1">
          <mxGeometry x="-245" y="3050.5" width="415" height="187.5" as="geometry" />
        </mxCell>
        <mxCell id="qRTpAIv4RuVWZYeeVar0-32" value="" style="endArrow=none;dashed=1;html=1;dashPattern=1 3;strokeWidth=2;rounded=0;exitX=1;exitY=0.5;exitDx=0;exitDy=0;" edge="1" parent="1" source="qRTpAIv4RuVWZYeeVar0-19" target="qRTpAIv4RuVWZYeeVar0-31">
          <mxGeometry width="50" height="50" relative="1" as="geometry">
            <mxPoint x="230.00000000000023" y="3180" as="sourcePoint" />
            <mxPoint x="130" y="3180" as="targetPoint" />
          </mxGeometry>
        </mxCell>
        <mxCell id="qRTpAIv4RuVWZYeeVar0-33" value="SelectorProps" style="swimlane;fontStyle=0;childLayout=stackLayout;horizontal=1;startSize=26;fillColor=none;horizontalStack=0;resizeParent=1;resizeParentMax=0;resizeLast=0;collapsible=1;marginBottom=0;" vertex="1" parent="1">
          <mxGeometry x="240" y="3077.5" width="150" height="130" as="geometry">
            <mxRectangle x="1050" y="1880" width="360" height="30" as="alternateBounds" />
          </mxGeometry>
        </mxCell>
        <mxCell id="qRTpAIv4RuVWZYeeVar0-34" value="+ name: string" style="text;strokeColor=none;fillColor=none;align=left;verticalAlign=top;spacingLeft=4;spacingRight=4;overflow=hidden;rotatable=0;points=[[0,0.5],[1,0.5]];portConstraint=eastwest;" vertex="1" parent="qRTpAIv4RuVWZYeeVar0-33">
          <mxGeometry y="26" width="150" height="26" as="geometry" />
        </mxCell>
        <mxCell id="qRTpAIv4RuVWZYeeVar0-35" value="+ type: string" style="text;strokeColor=none;fillColor=none;align=left;verticalAlign=top;spacingLeft=4;spacingRight=4;overflow=hidden;rotatable=0;points=[[0,0.5],[1,0.5]];portConstraint=eastwest;" vertex="1" parent="qRTpAIv4RuVWZYeeVar0-33">
          <mxGeometry y="52" width="150" height="26" as="geometry" />
        </mxCell>
        <mxCell id="qRTpAIv4RuVWZYeeVar0-36" value="+ accurate: string" style="text;strokeColor=none;fillColor=none;align=left;verticalAlign=top;spacingLeft=4;spacingRight=4;overflow=hidden;rotatable=0;points=[[0,0.5],[1,0.5]];portConstraint=eastwest;" vertex="1" parent="qRTpAIv4RuVWZYeeVar0-33">
          <mxGeometry y="78" width="150" height="26" as="geometry" />
        </mxCell>
        <mxCell id="qRTpAIv4RuVWZYeeVar0-37" value="+ props: List&lt;Props&gt;" style="text;strokeColor=none;fillColor=none;align=left;verticalAlign=top;spacingLeft=4;spacingRight=4;overflow=hidden;rotatable=0;points=[[0,0.5],[1,0.5]];portConstraint=eastwest;" vertex="1" parent="qRTpAIv4RuVWZYeeVar0-33">
          <mxGeometry y="104" width="150" height="26" as="geometry" />
        </mxCell>
        <mxCell id="qRTpAIv4RuVWZYeeVar0-38" value="Props" style="swimlane;fontStyle=0;childLayout=stackLayout;horizontal=1;startSize=26;fillColor=none;horizontalStack=0;resizeParent=1;resizeParentMax=0;resizeLast=0;collapsible=1;marginBottom=0;" vertex="1" parent="1">
          <mxGeometry x="240" y="3259" width="190" height="182" as="geometry">
            <mxRectangle x="1050" y="1880" width="360" height="30" as="alternateBounds" />
          </mxGeometry>
        </mxCell>
        <mxCell id="qRTpAIv4RuVWZYeeVar0-39" value="+ name: string" style="text;strokeColor=none;fillColor=none;align=left;verticalAlign=top;spacingLeft=4;spacingRight=4;overflow=hidden;rotatable=0;points=[[0,0.5],[1,0.5]];portConstraint=eastwest;" vertex="1" parent="qRTpAIv4RuVWZYeeVar0-38">
          <mxGeometry y="26" width="190" height="26" as="geometry" />
        </mxCell>
        <mxCell id="qRTpAIv4RuVWZYeeVar0-40" value="+ value: string" style="text;strokeColor=none;fillColor=none;align=left;verticalAlign=top;spacingLeft=4;spacingRight=4;overflow=hidden;rotatable=0;points=[[0,0.5],[1,0.5]];portConstraint=eastwest;" vertex="1" parent="qRTpAIv4RuVWZYeeVar0-38">
          <mxGeometry y="52" width="190" height="26" as="geometry" />
        </mxCell>
        <mxCell id="qRTpAIv4RuVWZYeeVar0-41" value="+ pattern: string" style="text;strokeColor=none;fillColor=none;align=left;verticalAlign=top;spacingLeft=4;spacingRight=4;overflow=hidden;rotatable=0;points=[[0,0.5],[1,0.5]];portConstraint=eastwest;" vertex="1" parent="qRTpAIv4RuVWZYeeVar0-38">
          <mxGeometry y="78" width="190" height="26" as="geometry" />
        </mxCell>
        <mxCell id="qRTpAIv4RuVWZYeeVar0-42" value="+ accurate: string" style="text;strokeColor=none;fillColor=none;align=left;verticalAlign=top;spacingLeft=4;spacingRight=4;overflow=hidden;rotatable=0;points=[[0,0.5],[1,0.5]];portConstraint=eastwest;" vertex="1" parent="qRTpAIv4RuVWZYeeVar0-38">
          <mxGeometry y="104" width="190" height="26" as="geometry" />
        </mxCell>
        <mxCell id="qRTpAIv4RuVWZYeeVar0-43" value="+ textValue: string  // 纯文本内容" style="text;strokeColor=none;fillColor=none;align=left;verticalAlign=top;spacingLeft=4;spacingRight=4;overflow=hidden;rotatable=0;points=[[0,0.5],[1,0.5]];portConstraint=eastwest;" vertex="1" parent="qRTpAIv4RuVWZYeeVar0-38">
          <mxGeometry y="130" width="190" height="26" as="geometry" />
        </mxCell>
        <mxCell id="qRTpAIv4RuVWZYeeVar0-44" value="+ expressionValue // 表达式内容" style="text;strokeColor=none;fillColor=none;align=left;verticalAlign=top;spacingLeft=4;spacingRight=4;overflow=hidden;rotatable=0;points=[[0,0.5],[1,0.5]];portConstraint=eastwest;" vertex="1" parent="qRTpAIv4RuVWZYeeVar0-38">
          <mxGeometry y="156" width="190" height="26" as="geometry" />
        </mxCell>
        <mxCell id="qRTpAIv4RuVWZYeeVar0-45" value="1" style="endArrow=open;html=1;endSize=12;startArrow=diamondThin;startSize=14;startFill=1;align=left;verticalAlign=bottom;rounded=0;entryX=0.5;entryY=0;entryDx=0;entryDy=0;" edge="1" parent="1" source="qRTpAIv4RuVWZYeeVar0-37" target="qRTpAIv4RuVWZYeeVar0-38">
          <mxGeometry x="-1" y="3" relative="1" as="geometry">
            <mxPoint x="390" y="3116" as="sourcePoint" />
            <mxPoint x="420" y="3250" as="targetPoint" />
          </mxGeometry>
        </mxCell>
        <mxCell id="qRTpAIv4RuVWZYeeVar0-46" value="" style="endArrow=none;dashed=1;html=1;dashPattern=1 3;strokeWidth=2;rounded=0;" edge="1" parent="1" source="qRTpAIv4RuVWZYeeVar0-31" target="qRTpAIv4RuVWZYeeVar0-33">
          <mxGeometry width="50" height="50" relative="1" as="geometry">
            <mxPoint x="160" y="3320" as="sourcePoint" />
            <mxPoint x="210" y="3270" as="targetPoint" />
          </mxGeometry>
        </mxCell>
        <mxCell id="qRTpAIv4RuVWZYeeVar0-47" value="&lt;br&gt;支持3类元素处理：分页按钮selector、相似元素、数据采集元素&lt;br&gt;1.分页按钮selector处理逻辑：不需要自动处理,只要需要原串即可，不需要后续处理&lt;br&gt;2.相似元素拾取&amp;nbsp; 对比生成：&lt;br&gt;&lt;br&gt;&lt;br&gt;3.数据采集元素，自动生成：支持3种类型，&lt;br&gt;table元素、software软件元素、其他元素：&lt;br&gt;(1) table元素：将返回值设置为table类型RetCaptureModel.IsTable = true;&lt;br&gt;&lt;span style=&quot;font-size: 10px;&quot;&gt;&amp;nbsp;List&amp;lt;SelectorProps&amp;gt; selectorObject不做处理&lt;br&gt;&lt;/span&gt;(2) 软件元素：略&lt;br&gt;&lt;br&gt;（3）其他元素：//处理select 得到只有tag的selector&lt;br&gt;List&amp;lt;SelectorProps&amp;gt;&amp;nbsp;&amp;nbsp;&lt;span style=&quot;font-size: 10px;&quot;&gt;selectorObject&lt;br&gt;&lt;/span&gt;SelectorProps sp&lt;br&gt;&lt;span style=&quot;font-size: 10px;&quot;&gt;List&amp;lt;SelectorProps&amp;gt; onlyContainsTagsProps&lt;br&gt;&lt;/span&gt;onlyContainsTagsProps内的sp保留Name、Type属性&lt;br&gt;若sp.name=&lt;span style=&quot;&quot;&gt; &lt;/span&gt;&quot;iframe&quot;、“frame”、&quot;frameset&quot;则保留sp.Props&lt;br&gt;否则&lt;br&gt;循环props进行筛选&amp;gt;&amp;gt;&lt;br&gt;(a) 删除name为@index的prop&lt;br&gt;(b) 完整保留name=&quot;id&quot;的prop&lt;br&gt;(c) name=&quot;title&quot; 的prop保留name、value属性，Pattern设置为regular，Accurate设置为true&lt;br&gt;(d) 其他prop,&lt;br&gt;&lt;span style=&quot;background-color: initial; font-size: 10px;&quot;&gt;Name = prop.Name,&lt;/span&gt;&lt;div&gt;&lt;span style=&quot;font-size: 10px;&quot;&gt;Value = &quot;.*&quot;,&lt;/span&gt;&lt;/div&gt;&lt;div&gt;&lt;span style=&quot;font-size: 10px;&quot;&gt;&amp;nbsp; &amp;nbsp; &amp;nbsp; &amp;nbsp; &amp;nbsp; &amp;nbsp; &amp;nbsp; &amp;nbsp; &amp;nbsp; &amp;nbsp; &amp;nbsp; &amp;nbsp; &amp;nbsp; &amp;nbsp; &amp;nbsp; &amp;nbsp; &amp;nbsp; &amp;nbsp; &amp;nbsp; &amp;nbsp; Pattern = Pattern.REGULAR.GetPatternAttribute(),&lt;/span&gt;&lt;/div&gt;&lt;div&gt;&lt;span style=&quot;font-size: 10px;&quot;&gt;Accurate = &quot;true&quot;&lt;/span&gt;&lt;/div&gt;&lt;div&gt;循环props进行筛选 结束&amp;lt;&amp;lt;&lt;/div&gt;&lt;div&gt;调用GuiElement.AutoBulidCollectDataSelector自动构建数据采集选择器&lt;/div&gt;&lt;div&gt;&lt;span style=&quot;font-size: 10px;&quot;&gt;调用ChromeNonde.AutoBulidCollectDataSelector()&lt;/span&gt;&lt;br&gt;&lt;/div&gt;&lt;div&gt;&lt;span style=&quot;font-size: 10px;&quot;&gt;返回值赋值&lt;/span&gt;&lt;/div&gt;processedSelector&lt;br&gt;&lt;br&gt;&lt;br&gt;&lt;br&gt;4.&lt;span style=&quot;background-color: initial; font-size: 10px;&quot;&gt;存储处理之后的selector,即最终用来做数据采集的selector&lt;/span&gt;&lt;span style=&quot;background-color: initial;&quot;&gt;&amp;nbsp; &amp;nbsp; &amp;nbsp; &amp;nbsp; &amp;nbsp; &amp;nbsp; &amp;nbsp; &amp;nbsp;&amp;nbsp;&lt;/span&gt;&lt;span style=&quot;background-color: initial; font-size: 10px;&quot;&gt;&lt;br&gt;&lt;/span&gt;&lt;span style=&quot;font-size: 10px;&quot;&gt;DataCollectOverlayWnd.&lt;/span&gt;&lt;div&gt;&lt;span style=&quot;font-size: 10px;&quot;&gt;RetElementCaptureModel.ProcessedSelector = processedSelector;&lt;/span&gt;&lt;/div&gt;" style="rounded=1;whiteSpace=wrap;html=1;fontSize=10;" vertex="1" parent="1">
          <mxGeometry x="-260" y="3390" width="470" height="640" as="geometry" />
        </mxCell>
        <mxCell id="qRTpAIv4RuVWZYeeVar0-48" value="" style="endArrow=none;dashed=1;html=1;dashPattern=1 3;strokeWidth=2;rounded=0;" edge="1" parent="1" source="qRTpAIv4RuVWZYeeVar0-20" target="qRTpAIv4RuVWZYeeVar0-47">
          <mxGeometry width="50" height="50" relative="1" as="geometry">
            <mxPoint x="-320" y="3390" as="sourcePoint" />
            <mxPoint x="-270" y="3340" as="targetPoint" />
          </mxGeometry>
        </mxCell>
        <mxCell id="qRTpAIv4RuVWZYeeVar0-49" value="&lt;span style=&quot;&quot;&gt;AutoBulidCollectDataSelector()&lt;br&gt;&amp;lt;&lt;/span&gt;&lt;span style=&quot;&quot;&gt;&amp;nbsp;ChromeNode&lt;/span&gt;&lt;span style=&quot;&quot;&gt;&amp;gt;&lt;br&gt;&lt;/span&gt;&lt;br&gt;&lt;br&gt;&lt;br&gt;&lt;br&gt;&lt;br&gt;（注：OnlyContainsTagsSelector是&lt;br&gt;只包含标签的Selector，&lt;br&gt;与普通的元素结构相比，结构层级相同，但不包含属性）&lt;br&gt;&lt;br&gt;&lt;br&gt;&lt;span style=&quot;font-size: 10px;&quot;&gt;string selectors = GetElementFromSelectorAll(paramModel.OnlyContainsTagsSelector.ToJson());&lt;br&gt;List&amp;lt;string&amp;gt; similarSelectors = new List&amp;lt;string&amp;gt;();&lt;/span&gt;&lt;br&gt;&lt;span style=&quot;font-size: 10px;&quot;&gt;JArray elementIds = JArray.Parse(selectors);&lt;br&gt;&lt;/span&gt;&lt;br&gt;1. 判断elementIds内elementId数量，若为1则直接返回OriginalSelector，跳过后续处理&lt;br&gt;2. 循环elementIds内elementId&amp;nbsp;进行处理：&lt;br&gt;（a）若elementId.ToString() == this.UserDefinedID（循环内的selector等于当前chromeNode存储的UserDefinedID），则不做处理&lt;br&gt;(b) 否则&lt;br&gt;&lt;span style=&quot;background-color: initial; font-size: 10px;&quot;&gt;var element = chromeTab.BuildSelector(elementId.ToString());&lt;/span&gt;&lt;div&gt;&lt;span style=&quot;font-size: 10px;&quot;&gt;&amp;nbsp; &amp;nbsp; &amp;nbsp; &amp;nbsp; &amp;nbsp; &amp;nbsp; &amp;nbsp; &amp;nbsp; JArray elementArray = JArray.Parse(element);&lt;/span&gt;&lt;/div&gt;&lt;div&gt;&lt;span style=&quot;font-size: 10px;&quot;&gt;&amp;nbsp; &amp;nbsp; &amp;nbsp; &amp;nbsp; &amp;nbsp; &amp;nbsp; &amp;nbsp; &amp;nbsp; elementArray.Remove(elementArray[0]);&lt;/span&gt;&lt;/div&gt;&lt;div&gt;&lt;span style=&quot;font-size: 10px;&quot;&gt;similarSelectors.Add(ele);&lt;/span&gt;&lt;br&gt;&lt;/div&gt;&lt;div&gt;&lt;span style=&quot;font-size: 10px;&quot;&gt;&lt;br&gt;&lt;/span&gt;&lt;/div&gt;&lt;div&gt;&lt;span style=&quot;font-size: 10px;&quot;&gt;3.返回ChromeNode&lt;/span&gt;&lt;/div&gt;&lt;span style=&quot;font-size: 10px;&quot;&gt;.BuilidCollectDataSelector(paramModel.OriginalSelector, similarSelectors)执行返回值&lt;/span&gt;" style="rounded=1;whiteSpace=wrap;html=1;fontSize=10;" vertex="1" parent="1">
          <mxGeometry x="330" y="3525" width="490" height="370" as="geometry" />
        </mxCell>
        <mxCell id="qRTpAIv4RuVWZYeeVar0-50" value="" style="endArrow=none;dashed=1;html=1;dashPattern=1 3;strokeWidth=2;rounded=0;" edge="1" parent="1" source="qRTpAIv4RuVWZYeeVar0-47" target="qRTpAIv4RuVWZYeeVar0-49">
          <mxGeometry width="50" height="50" relative="1" as="geometry">
            <mxPoint x="230" y="3820" as="sourcePoint" />
            <mxPoint x="280" y="3770" as="targetPoint" />
          </mxGeometry>
        </mxCell>
        <mxCell id="qRTpAIv4RuVWZYeeVar0-51" value="GetElementFromSelectorAll()：&lt;span style=&quot;white-space: pre;&quot;&gt; &lt;/span&gt;&lt;span style=&quot;white-space: pre;&quot;&gt; &lt;/span&gt;&lt;span style=&quot;white-space: pre;&quot;&gt; &lt;/span&gt;&lt;span style=&quot;white-space: pre;&quot;&gt; &lt;/span&gt;&lt;span style=&quot;white-space: pre;&quot;&gt; &lt;/span&gt;&lt;span style=&quot;white-space: pre;&quot;&gt; &lt;/span&gt;&lt;span style=&quot;white-space: pre;&quot;&gt; &lt;/span&gt;&lt;span style=&quot;white-space: pre;&quot;&gt; &lt;/span&gt;&lt;span style=&quot;white-space: pre;&quot;&gt; &lt;/span&gt;&lt;br&gt;&amp;lt;&amp;nbsp;ChromeNode&amp;gt;&lt;span style=&quot;white-space: pre;&quot;&gt; &lt;/span&gt;&lt;span style=&quot;white-space: pre;&quot;&gt; &lt;/span&gt;&lt;span style=&quot;white-space: pre;&quot;&gt; &lt;/span&gt;&lt;span style=&quot;white-space: pre;&quot;&gt; &lt;/span&gt;&lt;span style=&quot;white-space: pre;&quot;&gt; &lt;/span&gt;&lt;span style=&quot;white-space: pre;&quot;&gt; &lt;/span&gt;&lt;span style=&quot;white-space: pre;&quot;&gt; &lt;/span&gt;&lt;span style=&quot;white-space: pre;&quot;&gt; &lt;/span&gt;&lt;span style=&quot;white-space: pre;&quot;&gt; &lt;/span&gt;&lt;br&gt;&lt;br&gt;&lt;br&gt;&lt;br&gt;&lt;br&gt;&lt;br&gt;&lt;br&gt;&lt;br&gt;&lt;br&gt;&lt;br&gt;&lt;br&gt;&lt;br&gt;&lt;br&gt;&lt;br&gt;&lt;br&gt;&lt;br&gt;&lt;br&gt;&lt;br&gt;&lt;br&gt;" style="rounded=1;whiteSpace=wrap;html=1;fontSize=16;fontStyle=1" vertex="1" parent="1">
          <mxGeometry x="900" y="3207.5" width="400" height="420" as="geometry" />
        </mxCell>
        <mxCell id="qRTpAIv4RuVWZYeeVar0-52" value="" style="rounded=1;whiteSpace=wrap;html=1;fontSize=10;" vertex="1" parent="1">
          <mxGeometry x="900" y="3817" width="640" height="550" as="geometry" />
        </mxCell>
        <mxCell id="qRTpAIv4RuVWZYeeVar0-53" value="&lt;span style=&quot;font-size: 10px;&quot;&gt;关键逻辑:&lt;/span&gt;&lt;br style=&quot;font-size: 10px;&quot;&gt;&lt;span style=&quot;font-size: 10px;&quot;&gt;BuilidCollectDataSelector(paramModel.OriginalSelector, similarSelectors)：&lt;br&gt;&amp;lt;&lt;/span&gt;&lt;span style=&quot;font-size: 10px;&quot;&gt;&amp;nbsp;ChromeNode&lt;/span&gt;&lt;span style=&quot;font-size: 10px;&quot;&gt;&amp;gt;&lt;br&gt;&lt;/span&gt;" style="text;html=1;strokeColor=none;fillColor=none;align=center;verticalAlign=middle;whiteSpace=wrap;rounded=0;" vertex="1" parent="1">
          <mxGeometry x="960" y="3817" width="450" height="50" as="geometry" />
        </mxCell>
        <mxCell id="qRTpAIv4RuVWZYeeVar0-54" value="" style="edgeStyle=none;rounded=0;orthogonalLoop=1;jettySize=auto;html=1;" edge="1" parent="1" source="qRTpAIv4RuVWZYeeVar0-55" target="qRTpAIv4RuVWZYeeVar0-57">
          <mxGeometry relative="1" as="geometry" />
        </mxCell>
        <mxCell id="qRTpAIv4RuVWZYeeVar0-55" value="originalSelectorPropsList//基础selector的副本，即原串副本" style="rounded=1;whiteSpace=wrap;html=1;" vertex="1" parent="1">
          <mxGeometry x="960" y="3887" width="230" height="60" as="geometry" />
        </mxCell>
        <mxCell id="qRTpAIv4RuVWZYeeVar0-56" value="" style="edgeStyle=none;rounded=0;orthogonalLoop=1;jettySize=auto;html=1;" edge="1" parent="1" source="qRTpAIv4RuVWZYeeVar0-57" target="qRTpAIv4RuVWZYeeVar0-59">
          <mxGeometry relative="1" as="geometry" />
        </mxCell>
        <mxCell id="qRTpAIv4RuVWZYeeVar0-57" value="//所有相似串的集合 List&amp;lt;string&amp;gt; structureSimilarSelectors转换成List&amp;lt;List&amp;lt;SelectorProps&amp;gt;&amp;gt;&amp;nbsp;&lt;br&gt;similarSelectorPropsLists" style="rounded=1;whiteSpace=wrap;html=1;" vertex="1" parent="1">
          <mxGeometry x="960" y="3979" width="230" height="60" as="geometry" />
        </mxCell>
        <mxCell id="qRTpAIv4RuVWZYeeVar0-58" style="edgeStyle=orthogonalEdgeStyle;rounded=0;orthogonalLoop=1;jettySize=auto;html=1;entryX=0;entryY=0.5;entryDx=0;entryDy=0;" edge="1" parent="1" source="qRTpAIv4RuVWZYeeVar0-59" target="qRTpAIv4RuVWZYeeVar0-61">
          <mxGeometry relative="1" as="geometry" />
        </mxCell>
        <mxCell id="qRTpAIv4RuVWZYeeVar0-59" value="//移除所有节点层数不同的selector ，理论上是不存在的，只是个保险&lt;br&gt;similarSelectorPropsLists.&lt;br&gt;RemoveAll(sps =&amp;gt; sps.Count() != originalSelectorPropsList.Count())" style="rounded=1;whiteSpace=wrap;html=1;" vertex="1" parent="1">
          <mxGeometry x="960" y="4067" width="230" height="80" as="geometry" />
        </mxCell>
        <mxCell id="qRTpAIv4RuVWZYeeVar0-60" style="edgeStyle=orthogonalEdgeStyle;rounded=0;orthogonalLoop=1;jettySize=auto;html=1;" edge="1" parent="1" source="qRTpAIv4RuVWZYeeVar0-61" target="qRTpAIv4RuVWZYeeVar0-63">
          <mxGeometry relative="1" as="geometry" />
        </mxCell>
        <mxCell id="qRTpAIv4RuVWZYeeVar0-61" value="计算源串及相似串之间差异，注意源串只保留&quot;class&quot;, &quot;id&quot;, &quot;@index&quot;三个有效属性&lt;br&gt;差异值计算方法：&lt;br&gt;源串props与相似串props的name及value相等即算相同，差异数量=总数-相同数&lt;br&gt;代码例：originalSelectorPropsList[i].Props与similarSelectorPropsLists[j][i].Props对比&lt;br&gt;找到与源串相似度最高的元素" style="rounded=1;whiteSpace=wrap;html=1;" vertex="1" parent="1">
          <mxGeometry x="1231" y="3949" width="275" height="120" as="geometry" />
        </mxCell>
        <mxCell id="qRTpAIv4RuVWZYeeVar0-62" value="" style="edgeStyle=orthogonalEdgeStyle;rounded=0;orthogonalLoop=1;jettySize=auto;html=1;" edge="1" parent="1" source="qRTpAIv4RuVWZYeeVar0-63" target="qRTpAIv4RuVWZYeeVar0-64">
          <mxGeometry relative="1" as="geometry" />
        </mxCell>
        <mxCell id="qRTpAIv4RuVWZYeeVar0-63" value="使用完整的原串 与 最相似元素 &lt;br&gt;去异求同，尽可能多的保留相似属性&lt;br&gt;代码例：&lt;br&gt;&lt;div&gt;List&amp;lt;SelectorProps&amp;gt; similarSelectorPropsList = similarSelectorPropsLists[targetIndex];&lt;/div&gt;&lt;div&gt;&amp;nbsp; &amp;nbsp; &amp;nbsp; &amp;nbsp; &amp;nbsp; &amp;nbsp; &amp;nbsp; &amp;nbsp; return ChromeTab.&lt;/div&gt;&lt;div&gt;CompareBulidSimileSelector(originalSelector, similarSelectorPropsList);&lt;/div&gt;" style="rounded=1;whiteSpace=wrap;html=1;" vertex="1" parent="1">
          <mxGeometry x="1211" y="4154.5" width="315" height="170" as="geometry" />
        </mxCell>
        <mxCell id="qRTpAIv4RuVWZYeeVar0-64" value="返回相似属性值的List&amp;lt;SelectorProps&amp;gt;" style="rounded=1;whiteSpace=wrap;html=1;" vertex="1" parent="1">
          <mxGeometry x="960" y="4207" width="200" height="65" as="geometry" />
        </mxCell>
        <mxCell id="qRTpAIv4RuVWZYeeVar0-65" value="" style="endArrow=none;dashed=1;html=1;dashPattern=1 3;strokeWidth=2;rounded=0;" edge="1" parent="1" source="qRTpAIv4RuVWZYeeVar0-49" target="qRTpAIv4RuVWZYeeVar0-52">
          <mxGeometry width="50" height="50" relative="1" as="geometry">
            <mxPoint x="710" y="4110" as="sourcePoint" />
            <mxPoint x="760" y="4060" as="targetPoint" />
          </mxGeometry>
        </mxCell>
        <mxCell id="qRTpAIv4RuVWZYeeVar0-66" value="关键逻辑，ProcessSelector:" style="text;html=1;align=center;verticalAlign=middle;resizable=0;points=[];autosize=1;strokeColor=none;fillColor=none;" vertex="1" parent="1">
          <mxGeometry x="-225" y="3410" width="170" height="30" as="geometry" />
        </mxCell>
        <mxCell id="qRTpAIv4RuVWZYeeVar0-67" value="&lt;span style=&quot;font-size: 10px;&quot;&gt;&lt;br&gt;&lt;/span&gt;" style="text;html=1;align=center;verticalAlign=middle;resizable=0;points=[];autosize=1;strokeColor=none;fillColor=none;" vertex="1" parent="1">
          <mxGeometry x="430" y="3535" width="20" height="30" as="geometry" />
        </mxCell>
        <mxCell id="qRTpAIv4RuVWZYeeVar0-68" value="T1数据采集元素拾取及后处理逻辑：" style="text;html=1;align=center;verticalAlign=middle;resizable=0;points=[];autosize=1;strokeColor=none;fillColor=none;" vertex="1" parent="1">
          <mxGeometry x="-1199.99" y="2966.5" width="220" height="30" as="geometry" />
        </mxCell>
        <mxCell id="qRTpAIv4RuVWZYeeVar0-69" value="拾取元素获得Selector信息&lt;br&gt;&amp;lt;List&amp;lt;SelectorProps&amp;gt;&amp;gt;" style="rounded=1;whiteSpace=wrap;html=1;" vertex="1" parent="1">
          <mxGeometry x="-760" y="3580" width="220" height="60" as="geometry" />
        </mxCell>
        <mxCell id="qRTpAIv4RuVWZYeeVar0-70" value="处理Selector信息&lt;span style=&quot;white-space: pre; font-size: 16px;&quot;&gt; &lt;/span&gt;&lt;span style=&quot;white-space: pre; font-size: 16px;&quot;&gt; &lt;/span&gt;&lt;span style=&quot;white-space: pre; font-size: 16px;&quot;&gt; &lt;/span&gt;&lt;span style=&quot;white-space: pre; font-size: 16px;&quot;&gt; &lt;/span&gt;&lt;span style=&quot;white-space: pre; font-size: 16px;&quot;&gt; &lt;/span&gt;&lt;span style=&quot;white-space: pre; font-size: 16px;&quot;&gt; &lt;/span&gt;&lt;br style=&quot;font-size: 16px;&quot;&gt;&lt;br style=&quot;font-size: 16px;&quot;&gt;&lt;br style=&quot;font-size: 16px;&quot;&gt;&lt;br style=&quot;font-size: 16px;&quot;&gt;&lt;span style=&quot;white-space: pre; font-size: 16px;&quot;&gt; &lt;/span&gt;&lt;span style=&quot;white-space: pre; font-size: 16px;&quot;&gt; &lt;/span&gt;&lt;span style=&quot;white-space: pre; font-size: 16px;&quot;&gt; &lt;/span&gt;&lt;span style=&quot;white-space: pre; font-size: 16px;&quot;&gt; &lt;/span&gt;&lt;span style=&quot;white-space: pre; font-size: 16px;&quot;&gt; &lt;/span&gt;&lt;span style=&quot;white-space: pre; font-size: 16px;&quot;&gt; &lt;/span&gt;&lt;span style=&quot;white-space: pre; font-size: 16px;&quot;&gt; &lt;/span&gt;&lt;br style=&quot;font-size: 16px;&quot;&gt;&lt;br style=&quot;font-size: 16px;&quot;&gt;&lt;br style=&quot;font-size: 16px;&quot;&gt;&lt;br style=&quot;font-size: 16px;&quot;&gt;&lt;br style=&quot;font-size: 16px;&quot;&gt;&lt;br style=&quot;font-size: 16px;&quot;&gt;&lt;br style=&quot;font-size: 16px;&quot;&gt;&lt;br style=&quot;font-size: 16px;&quot;&gt;&lt;br style=&quot;font-size: 16px;&quot;&gt;&lt;br style=&quot;font-size: 16px;&quot;&gt;&lt;br style=&quot;font-size: 16px;&quot;&gt;&lt;br style=&quot;font-size: 16px;&quot;&gt;&lt;br style=&quot;font-size: 16px;&quot;&gt;&lt;br style=&quot;font-size: 16px;&quot;&gt;&lt;br style=&quot;font-size: 16px;&quot;&gt;&lt;br style=&quot;font-size: 16px;&quot;&gt;&lt;br style=&quot;font-size: 16px;&quot;&gt;&lt;br style=&quot;font-size: 16px;&quot;&gt;&lt;br style=&quot;font-size: 16px;&quot;&gt;" style="rounded=1;whiteSpace=wrap;html=1;fontSize=16;fontStyle=1" vertex="1" parent="1">
          <mxGeometry x="-990" y="3683.5" width="580" height="506.5" as="geometry" />
        </mxCell>
        <mxCell id="qRTpAIv4RuVWZYeeVar0-71" value="循环操作Selector内的每一个SelectorProps元素，保留Name、Type、Props属性，非frame元素继续修改Props属性" style="rounded=1;whiteSpace=wrap;html=1;fontSize=11;" vertex="1" parent="1">
          <mxGeometry x="-925" y="3800" width="220" height="60" as="geometry" />
        </mxCell>
        <mxCell id="qRTpAIv4RuVWZYeeVar0-72" value="循环Props:&lt;br&gt;1.保留name=id的prop&lt;br&gt;2.移除name=@index的prop&lt;br&gt;&lt;span style=&quot;font-size: 11px;&quot;&gt;3. name=&quot;title&quot; 的prop,保留name、value属性，Pattern设置为regular，Accurate设置为true&lt;br&gt;&lt;/span&gt;&lt;span style=&quot;font-size: 10px;&quot;&gt;4.其他prop,&amp;nbsp;&amp;nbsp;&lt;/span&gt;&lt;span style=&quot;font-size: 10px; background-color: initial;&quot;&gt;Name = prop.Name,&lt;/span&gt;&lt;span style=&quot;font-size: 10px; background-color: initial;&quot;&gt;Value = &quot;.*&quot;,&lt;/span&gt;&lt;span style=&quot;font-size: 10px; background-color: initial;&quot;&gt;&amp;nbsp;Pattern = &#39;regular&#39;&lt;br&gt;&amp;lt;&lt;/span&gt;&lt;span style=&quot;font-size: 10px;&quot;&gt;Pattern.REGULAR.GetPatternAttribute()&lt;/span&gt;&lt;span style=&quot;font-size: 10px; background-color: initial;&quot;&gt;&amp;gt;,&lt;/span&gt;&lt;span style=&quot;font-size: 10px; background-color: initial;&quot;&gt;&lt;br&gt;&lt;/span&gt;&lt;div style=&quot;font-size: 10px;&quot;&gt;Accurate = &quot;true&quot;&lt;/div&gt;" style="rounded=1;whiteSpace=wrap;html=1;fontSize=11;" vertex="1" parent="1">
          <mxGeometry x="-925" y="3899" width="230" height="170" as="geometry" />
        </mxCell>
        <mxCell id="qRTpAIv4RuVWZYeeVar0-73" value="调用js : tabs.querySelectorAll" style="rounded=1;whiteSpace=wrap;html=1;fontSize=11;" vertex="1" parent="1">
          <mxGeometry x="965" y="3310.5" width="210" height="50" as="geometry" />
        </mxCell>
        <mxCell id="qRTpAIv4RuVWZYeeVar0-74" value="参数： tabId&lt;br&gt;selector&lt;br&gt;parent &amp;lt;string，传默认null&amp;gt;&lt;br&gt;index &amp;lt;int ,传默认-1&amp;gt;&lt;br&gt;resultAttrName&amp;lt;string，传默认null&amp;gt;&lt;br&gt;filter &amp;lt;string, null&amp;gt;&lt;br&gt;relativeType, &amp;lt;int ,元素相对类型，此处传1，意为similar&amp;gt;&lt;br&gt;positionNum &amp;lt;string, null&amp;gt;" style="rounded=1;whiteSpace=wrap;html=1;fontSize=11;" vertex="1" parent="1">
          <mxGeometry x="965" y="3410.5" width="220" height="169.5" as="geometry" />
        </mxCell>
        <mxCell id="qRTpAIv4RuVWZYeeVar0-75" value="" style="endArrow=none;dashed=1;html=1;dashPattern=1 3;strokeWidth=2;rounded=0;fontSize=11;" edge="1" parent="1" source="qRTpAIv4RuVWZYeeVar0-49" target="qRTpAIv4RuVWZYeeVar0-51">
          <mxGeometry width="50" height="50" relative="1" as="geometry">
            <mxPoint x="830" y="3460" as="sourcePoint" />
            <mxPoint x="880" y="3410" as="targetPoint" />
          </mxGeometry>
        </mxCell>
      </root>
    </mxGraphModel>
  </diagram>
</mxfile>
